<?xml version="1.0" encoding="utf-8"?>
<!-- Generator: Adobe Illustrator 22.1.0, SVG Export Plug-In . SVG Version: 6.00 Build 0)  -->
<svg version="1.1" id="Lag_1" xmlns="http://www.w3.org/2000/svg" xmlns:xlink="http://www.w3.org/1999/xlink" x="0px" y="0px"
	 viewBox="0 0 1366 268" style="enable-background:new 0 0 1366 268;" xml:space="preserve">
<style type="text/css">
	.st0{fill:#5DC7C1;}
	.st1{fill:#201753;}
</style>
<g>
	<path class="st0" d="M129.2,48.8L97,149.9v86.6H65v-86.6l-32.2-101h33l15.1,57.6l15.3-57.6H129.2z"/>
	<path class="st0" d="M201.5,48.8c6,0,11.5,1.5,16.7,4.6c5.2,3,9.7,7.1,13.5,12.3c3.8,5.2,6.9,11.3,9.2,18.2
		c2.3,7,3.4,14.5,3.4,22.5v72.4c0,8-1.1,15.5-3.4,22.5c-2.3,7-5.3,13-9.2,18.2c-3.9,5.2-8.4,9.3-13.5,12.3c-5.2,3-10.7,4.6-16.7,4.6
		H180c-6,0-11.5-1.5-16.7-4.6c-5.2-3-9.7-7.1-13.5-12.3c-3.8-5.2-6.9-11.3-9.2-18.2c-2.3-7-3.4-14.5-3.4-22.5v-72.4
		c0-8,1.1-15.5,3.4-22.5c2.3-7,5.3-13,9.2-18.2c3.8-5.2,8.4-9.3,13.5-12.3c5.2-3,10.7-4.6,16.7-4.6H201.5z M212.2,106.5
		c0-3.9-1-7.3-3.1-10c-2.1-2.8-4.6-4.2-7.7-4.2H180c-3.1,0-5.6,1.4-7.7,4.2c-2.1,2.8-3.1,6.1-3.1,10v72.4c0,3.9,1,7.3,3.1,10.2
		c2.1,2.9,4.6,4.3,7.7,4.3h21.5c3.1,0,5.6-1.4,7.7-4.3c2.1-2.9,3.1-6.3,3.1-10.2V106.5z"/>
	<path class="st0" d="M359.3,178.8c0,8-1.1,15.5-3.4,22.5c-2.3,7-5.3,13-9.2,18.2c-3.9,5.2-8.4,9.3-13.5,12.3
		c-5.2,3-10.7,4.6-16.7,4.6H295c-6,0-11.5-1.5-16.7-4.6c-5.2-3-9.7-7.1-13.5-12.3c-3.8-5.2-6.9-11.3-9.2-18.2
		c-2.3-7-3.4-14.5-3.4-22.5v-130h32v130c0,3.9,1,7.3,3.1,10.2c2.1,2.9,4.6,4.3,7.7,4.3h21.5c3.1,0,5.6-1.4,7.7-4.3
		c2.1-2.9,3.1-6.3,3.1-10.2v-130h32V178.8z"/>
	<path class="st0" d="M367.3,106.5c0-8,1.1-15.5,3.4-22.5c2.3-7,5.3-13,9.2-18.2c3.8-5.2,8.4-9.3,13.5-12.3c5.2-3,10.7-4.6,16.7-4.6
		h21.5c6,0,11.5,1.5,16.7,4.6c5.2,3,9.7,7.1,13.5,12.3c3.8,5.2,6.9,11.3,9.2,18.2c2.3,7,3.4,14.5,3.4,22.5v130h-32v-130
		c0-3.9-1-7.3-3.1-10.2c-2.1-2.9-4.6-4.3-7.7-4.3h-21.5c-3.1,0-5.6,1.4-7.7,4.3c-2.1,2.9-3.1,6.3-3.1,10.2v130h-32V106.5z"/>
	<path class="st0" d="M546.6,120.9h42.8v43.4v14.5c0,8-1.1,15.5-3.4,22.5c-2.3,7-5.3,13-9.2,18.2c-3.9,5.2-8.4,9.3-13.5,12.3
		c-5.2,3-10.7,4.6-16.7,4.6h-21.5c-6,0-11.5-1.5-16.7-4.6c-5.2-3-9.7-7.1-13.5-12.3c-3.8-5.2-6.9-11.3-9.2-18.2
		c-2.3-7-3.4-14.5-3.4-22.5v-72.4c0-8,1.1-15.5,3.4-22.5c2.3-7,5.3-13,9.2-18.2c3.8-5.2,8.4-9.3,13.5-12.3c5.2-3,10.7-4.6,16.7-4.6
		h21.5c6,0,11.5,1.5,16.7,4.6c5.2,3,9.7,7.1,13.5,12.3c3.8,5.2,6.9,11.3,9.2,18.2c2.3,7,3.4,14.5,3.4,22.5h-32c0-3.9-1-7.3-3.1-10
		c-2.1-2.8-4.6-4.2-7.7-4.2h-21.5c-3.1,0-5.6,1.4-7.7,4.2c-2.1,2.8-3.1,6.1-3.1,10v72.4c0,3.9,1,7.3,3.1,10.2
		c2.1,2.9,4.6,4.3,7.7,4.3h21.5c3.1,0,5.6-1.4,7.7-4.3c2.1-2.9,3.1-6.3,3.1-10.2v-14.5h-10.7V120.9z"/>
	<path class="st1" d="M701.6,48.8c6,0,11.5,1.5,16.7,4.6c5.2,3,9.7,7.1,13.5,12.3c3.8,5.2,6.9,11.3,9.2,18.2
		c2.3,7,3.4,14.5,3.4,22.5S743.3,122,741,129c-2.3,7-5.3,13.1-9.2,18.4c-3.8,5.3-8.4,9.4-13.5,12.5c-5.2,3-10.7,4.6-16.7,4.6h-32.2
		v72.1h-32V48.8h32H701.6z M701.6,120.9c3.1,0,5.6-1.4,7.7-4.2c2.1-2.8,3.1-6.2,3.1-10.3c0-3.9-1-7.3-3.1-10
		c-2.1-2.8-4.6-4.2-7.7-4.2h-32.2v28.7H701.6z"/>
	<path class="st1" d="M827.4,193.3v43.1h-32.2c-6,0-11.5-1.5-16.7-4.6c-5.2-3-9.7-7.1-13.5-12.3c-3.9-5.2-6.9-11.3-9.2-18.2
		c-2.3-7-3.4-14.5-3.4-22.5v-130h32.2v130c0,3.9,1,7.3,3.1,10.2c2.1,2.9,4.5,4.3,7.5,4.3H827.4z"/>
	<path class="st1" d="M942.4,178.8c0,8-1.1,15.5-3.4,22.5c-2.3,7-5.3,13-9.2,18.2c-3.8,5.2-8.4,9.3-13.5,12.3
		c-5.2,3-10.7,4.6-16.7,4.6h-21.5c-6,0-11.5-1.5-16.7-4.6c-5.2-3-9.7-7.1-13.5-12.3c-3.9-5.2-6.9-11.3-9.2-18.2
		c-2.3-7-3.4-14.5-3.4-22.5v-130h32v130c0,3.9,1,7.3,3.1,10.2c2.1,2.9,4.6,4.3,7.7,4.3h21.5c3.1,0,5.6-1.4,7.7-4.3
		c2.1-2.9,3.1-6.3,3.1-10.2v-130h32V178.8z"/>
	<path class="st1" d="M1014.7,120.9h42.8v43.4v14.5c0,8-1.1,15.5-3.4,22.5c-2.3,7-5.3,13-9.2,18.2c-3.8,5.2-8.4,9.3-13.5,12.3
		c-5.2,3-10.7,4.6-16.7,4.6h-21.5c-6,0-11.5-1.5-16.7-4.6c-5.2-3-9.7-7.1-13.5-12.3c-3.9-5.2-6.9-11.3-9.2-18.2
		c-2.3-7-3.4-14.5-3.4-22.5v-72.4c0-8,1.1-15.5,3.4-22.5c2.3-7,5.3-13,9.2-18.2c3.8-5.2,8.4-9.3,13.5-12.3c5.2-3,10.7-4.6,16.7-4.6
		h21.5c6,0,11.5,1.5,16.7,4.6c5.2,3,9.7,7.1,13.5,12.3c3.8,5.2,6.9,11.3,9.2,18.2c2.3,7,3.4,14.5,3.4,22.5h-32c0-3.9-1-7.3-3.1-10
		c-2.1-2.8-4.6-4.2-7.7-4.2h-21.5c-3.1,0-5.6,1.4-7.7,4.2c-2.1,2.8-3.1,6.1-3.1,10v72.4c0,3.9,1,7.3,3.1,10.2
		c2.1,2.9,4.6,4.3,7.7,4.3h21.5c3.1,0,5.6-1.4,7.7-4.3c2.1-2.9,3.1-6.3,3.1-10.2v-14.5h-10.7V120.9z"/>
	<path class="st1" d="M1097.5,48.8v187.6h-32V48.8H1097.5z"/>
	<path class="st1" d="M1105.4,106.5c0-8,1.1-15.5,3.4-22.5c2.3-7,5.3-13,9.2-18.2c3.8-5.2,8.4-9.3,13.5-12.3
		c5.2-3,10.7-4.6,16.7-4.6h21.5c6,0,11.5,1.5,16.7,4.6c5.2,3,9.7,7.1,13.5,12.3c3.8,5.2,6.9,11.3,9.2,18.2c2.3,7,3.4,14.5,3.4,22.5
		v130h-32v-130c0-3.9-1-7.3-3.1-10.2c-2.1-2.9-4.6-4.3-7.7-4.3h-21.5c-3.1,0-5.6,1.4-7.7,4.3c-2.1,2.9-3.1,6.3-3.1,10.2v130h-32
		V106.5z"/>
	<path class="st1" d="M1301.5,125.5c5.2,3,9.7,7.2,13.5,12.5c3.8,5.3,6.9,11.4,9.2,18.4c2.3,7,3.4,14.5,3.4,22.5s-1.1,15.5-3.4,22.5
		c-2.3,7-5.3,13-9.2,18.2c-3.8,5.2-8.4,9.3-13.5,12.3c-5.2,3-10.7,4.6-16.7,4.6h-64.3v-43.1h64.3c3.1-0.2,5.6-1.7,7.7-4.4
		c2.1-2.8,3.1-6.1,3.1-10.1c0-4.1-1-7.5-3.1-10.3c-2.1-2.8-4.6-4.2-7.7-4.2h-21.5c-6,0-11.5-1.5-16.7-4.6c-5.2-3-9.7-7.2-13.5-12.5
		c-3.9-5.3-6.9-11.4-9.2-18.4c-2.3-7-3.4-14.5-3.4-22.5s1.1-15.5,3.4-22.5c2.3-7,5.3-13,9.2-18.2c3.8-5.2,8.4-9.3,13.5-12.3
		c5.2-3,10.7-4.6,16.7-4.6h42.8v43.4h-42.8c-3.1,0-5.6,1.4-7.7,4.2c-2.1,2.8-3.1,6.1-3.1,10c0,4.1,1,7.5,3.1,10.3
		c2.1,2.8,4.6,4.2,7.7,4.2h21.5C1290.7,120.9,1296.3,122.4,1301.5,125.5z"/>
</g>
<g>
</g>
<g>
</g>
<g>
</g>
<g>
</g>
<g>
</g>
<g>
</g>
<g>
</g>
<g>
</g>
<g>
</g>
<g>
</g>
<g>
</g>
<g>
</g>
<g>
</g>
<g>
</g>
<g>
</g>
</svg>
